<?xml version="1.0" encoding="UTF-8"?><svg id="a" xmlns="http://www.w3.org/2000/svg" viewBox="0 0 283.42 96.67"><path d="m174.03,61.1c0-.13,0-.25,0-.38,0-9.08,0-18.17,0-27.25,0-.13.01-.25.02-.38,0-.03.01-.06.02-.09.09-1.88,1.63-3.17,3.38-3.17,4.07.01,8.14,0,12.2.01.62,0,1.24.14,1.86.21.58.06,1.15.2,1.72.34.96.23,1.87.6,2.67,1.17,1.46,1.05,2.38,2.47,2.75,4.23.14.63.21,1.27.22,1.91,0,.06,0,.12,0,.18,0,.05,0,.11,0,.16,0,.03.02.06.03.1,0,.11,0,.23,0,.34-.05.04-.05.09-.04.15-.11.57-.13,1.16-.31,1.73-.51,1.61-1.51,2.82-2.94,3.69-.12.07-.33.1-.32.27.01.15.2.16.32.22,1.7.87,3.08,2.05,3.74,3.9.23.65.36,1.32.4,2.02.02.39.15.76.13,1.16-.11,2.03-.37,4.02-1.58,5.75-1.28,1.83-3.09,2.85-5.2,3.4-1.63.42-3.29.58-4.98.57-4.54-.03-9.08,0-13.62-.01-.14,0-.3.07-.42-.07,0-.05,0-.1-.05-.13Zm6.48-19.15s.05.05.08,0c2.65,0,5.3,0,7.95,0,.03.05.06.03.08,0,.05,0,.09,0,.14-.01.64-.07,1.28-.17,1.86-.47,1.35-.69,1.72-1.81,1.56-3.34-.14-1.35-.93-2.15-2.22-2.5-.37-.1-.75-.16-1.12-.16-2.71-.01-5.41-.01-8.12-.03-.29,0-.39.12-.39.39,0,1.92,0,3.85,0,5.77,0,.14-.01.31.19.35Zm-.07,13.63c.07.07.15.07.23.04,1.85,0,3.71,0,5.56,0,.03,0,.06-.02.09-.02.48-.02.96-.03,1.44,0,.03,0,.06.01.09.02.13,0,.25,0,.38,0,.03,0,.06-.01.09-.02.19-.04.38-.1.57-.1.64-.02,1.26-.15,1.85-.37,1.25-.46,2.06-1.29,2.28-2.65.08-.52.09-1.04.05-1.55-.11-1.34-.68-2.41-1.98-2.96-.72-.31-1.5-.48-2.28-.48-2.71-.02-5.41,0-8.12-.01-.31,0-.4.12-.4.41,0,2.44,0,4.88,0,7.33,0,.13-.03.28.13.37Z" fill="#f15b2c"/><path d="m110.81,29.85c1.66.15,3.31.32,4.87,1,2.38,1.04,3.72,2.89,4.22,5.39.1.5.15,1,.22,1.5,0,.63-.03,1.26.03,1.89-.12.77-.18,1.55-.44,2.29-.33.96-.82,1.81-1.5,2.57-.67.75-1.49,1.25-2.4,1.62-.06.02-.16.02-.16.1,0,.1.09.12.16.14,1.97.72,2.95,2.21,3.26,4.22.17,1.09.22,2.19.31,3.29.14,1.74.08,3.49.25,5.23.07.72.29,1.42.82,1.97.05.05.09.11.06.18-.05.09-.14.06-.22.06-.89,0-1.78,0-2.66,0-1.26,0-2.51,0-3.77,0-.28,0-.41-.1-.51-.34-.32-.77-.41-1.58-.5-2.39-.12-1.11-.01-2.23-.1-3.34-.1-1.29-.13-2.59-.5-3.85-.42-1.44-1.45-2.01-2.81-2.21-1.66-.24-3.34-.08-5.01-.12-.89-.02-1.78,0-2.66,0-.44,0-.47.03-.47.47,0,3.75,0,7.49,0,11.24q0,.53-.53.53c-1.89,0-3.78,0-5.67,0-.26,0-.4-.05-.4-.36,0-6.13,0-12.27,0-18.4,0-3.12.04-6.25,0-9.37-.03-1.75,1.43-3.31,3.12-3.3.03,0,.07,0,.1-.01.08,0,.16.02.24.02,4.13,0,8.26,0,12.39,0,.09,0,.18.03.27-.04Zm-4.98,5.51s0,0,0-.01c-1.36,0-2.72,0-4.08,0-.44,0-.45.02-.45.44,0,2.44,0,4.89,0,7.33,0,.44.02.46.48.46,2.19,0,4.38,0,6.57,0,.74,0,1.47-.09,2.19-.21,1.35-.23,2.36-.91,2.83-2.27.2-.58.16-1.18.19-1.77.14-2.37-1.79-3.96-3.78-3.97-1.31,0-2.63,0-3.94,0Z" fill="#0f75bc"/><path d="m135.23,56.4c1.21-.14,2.26-.57,3.05-1.54.38-.47.83-.87,1.46-.99.18-.03.37-.05.55-.05,1.49,0,2.97,0,4.46,0q.52,0,.38.49c-1.21,4-3.95,6.33-7.98,7.18-2.55.54-5.11.44-7.53-.57-2.8-1.17-4.57-3.33-5.57-6.16-.47-1.32-.67-2.7-.75-4.09-.01-.23-.06-.46-.09-.68,0-.51.04-1.03-.02-1.55-.05-.28-.03-.55.05-.83.1-.39.08-.82.13-1.23.38-3.11,1.45-5.88,4-7.87,1.37-1.07,2.95-1.65,4.67-1.93,1.2-.2,2.4-.21,3.58-.1,4.06.37,7.21,2.13,8.85,6.07.51,1.22.81,2.48,1,3.79.19,1.32.17,2.63.18,3.95,0,.45-.04.49-.5.49-4.93,0-9.87,0-14.8,0-.58,0-.59,0-.55.57.1,1.33.45,2.59,1.35,3.62.76.88,1.77,1.29,2.91,1.41.39.09.79.09,1.18,0Zm-.9-9.69c1.39,0,2.79,0,4.18,0,.32,0,.43-.11.42-.42,0-.29-.09-.57-.14-.85-.17-1.01-.55-1.93-1.35-2.61-1.21-1.02-2.63-1.24-4.12-.91-2.48.55-3.31,2.32-3.52,4.3-.05.48-.01.49.49.49,1.35,0,2.7,0,4.04,0Z" fill="#0f75bc"/><path d="m170.49,54.36c-.17,1.78-.75,3.37-2.03,4.68-.96.99-2.16,1.56-3.43,1.98-1.36.45-2.77.66-4.2.7-.38.01-.75.07-1.13.12-.3.04-.61.06-.92-.04-.21-.06-.42-.09-.65-.09-1.87.01-3.67-.34-5.33-1.22-2.47-1.3-3.72-3.4-3.86-6.18-.01-.26-.06-.52-.08-.79-.02-.21.06-.32.29-.32,1.9,0,3.8,0,5.71,0,.19,0,.3.08.33.27.05.27.08.55.16.81.33,1.03,1.02,1.72,2.03,2.12,1,.4,2.03.43,3.09.42.82,0,1.57-.18,2.3-.51.47-.21.82-.56,1.07-1,.4-.7.15-1.56-.58-2.05-1.04-.7-2.22-.99-3.42-1.24-2.4-.48-4.76-1.07-6.95-2.18-1.4-.71-2.51-1.71-3.07-3.22-.2-.54-.3-1.11-.35-1.68.03-.49.03-.99,0-1.48.26-2.97,2.17-5.37,5.32-6.38.92-.3,1.86-.55,2.82-.61,1.18-.06,2.37-.08,3.55.04,1.13.12,2.22.34,3.29.72,2.57.91,4.21,2.68,4.92,5.31.11.4.22.8.18,1.22-.02.16.08.28.11.43.04.19.04.36-.22.36-1.43-.03-2.86.1-4.28-.07-.77-.1-1.42-.45-1.86-1.13-.84-1.27-2.05-1.87-3.55-1.9-.79-.02-1.59-.04-2.36.2-.34.1-.67.25-.95.47-.81.64-.78,1.88.07,2.47.94.65,2.03.91,3.11,1.2.67.18,1.33.41,2.01.51,1.18.17,2.31.52,3.42.91,1.17.41,2.32.87,3.34,1.61,1.06.78,1.64,1.84,1.94,3.09.07.3.1.61.15.92,0,.51,0,1.02,0,1.53Z" fill="#0f75bc"/><path d="m215.99,43.27c-1.21,0-2.42,0-3.63,0-.03,0-.07,0-.1-.01-.5,0-.55-.07-.44-.56.79-3.46,3.11-5.27,6.44-6.02.71-.16,1.43-.21,2.15-.23.03,0,.06,0,.09,0,.32-.05.64-.05.97,0,.03,0,.06,0,.09,0,.63,0,1.27,0,1.9,0,.03,0,.06,0,.09.01.75.11,1.5.19,2.24.35,1.19.26,2.34.65,3.36,1.37,1.39.98,2.27,2.28,2.5,3.99.03.26.09.52.08.79,0,.03,0,.07.01.1,0,3.17,0,6.34,0,9.51,0,.03,0,.07-.01.1-.09.74-.13,1.48-.31,2.21-.75,2.97-2.57,4.98-5.45,6-1.15.41-2.33.67-3.56.72-1.03.04-2.06.19-3.09.19-1.89-.01-3.66-.48-5.26-1.5-1.52-.97-2.44-2.34-2.72-4.13-.12-.79-.25-1.59-.22-2.39.08-1.69.37-3.31,1.57-4.62.68-.73,1.54-1.2,2.43-1.61,1.32-.62,2.71-.96,4.15-1.19,1.43-.23,2.88-.34,4.27-.75.59-.17,1.15-.41,1.6-.84.83-.79.62-2.14-.42-2.62-.8-.37-1.65-.55-2.54-.57-.01-.04-.04-.05-.08-.04-.43,0-.86.01-1.29.02-.08-.03-.16-.03-.23.04-.77.13-1.51.3-2.09.88-.14.14-.28.29-.35.47-.13.34-.39.44-.71.38-.45-.09-.89-.04-1.34-.06-.03,0-.07,0-.1.01Zm9.75,7.31c0-.4,0-.76,0-1.13,0-.23-.06-.28-.29-.18-1.35.57-2.76.94-4.19,1.23-.87.18-1.72.39-2.53.77-.65.3-1.1.77-1.36,1.44-.2.51-.24,1.03-.19,1.58.12,1.24.78,2.12,2,2.37,1.28.27,2.55.14,3.75-.43,1.36-.65,2.26-1.7,2.58-3.17.18-.81.34-1.65.23-2.47Z" fill="#f15b2c"/><path d="m255.6,56.13c0,1.65,0,3.3,0,4.95,0,.03,0,.06-.01.09-.09.21-.28.13-.42.13-3.32,0-6.64,0-9.95,0-3.46,0-6.91,0-10.37,0-.47,0-.49-.02-.49-.49,0-1.38,0-2.76.01-4.15,0-.03.02-.06.03-.09.13-.46.51-.73.81-1.06,1.05-1.17,2.14-2.32,3.18-3.51.94-1.07,1.92-2.11,2.87-3.17,1.45-1.62,2.9-3.24,4.35-4.85.48-.53.98-1.04,1.46-1.56.08-.09.24-.15.17-.3-.06-.12-.21-.07-.32-.07-2.88,0-5.76,0-8.65,0-.16,0-.32.02-.48-.04-.03,0-.05,0-.08,0-1.47-.18-2.55-1.41-2.55-2.88,0-.62,0-1.25,0-1.87,0-.22.08-.32.3-.31.07,0,.14,0,.21,0,6.32,0,12.64,0,18.96,0q.48,0,.48.47c0,1.41,0,2.81.02,4.22,0,.44-.14.8-.45,1.12-2.17,2.21-4.25,4.51-6.38,6.75-1.52,1.59-3.01,3.21-4.49,4.84-.4.43-.78.88-1.2,1.28-.06.05-.15.1-.12.19.03.08.13.08.21.08.08,0,.16,0,.24,0,4.07,0,8.14,0,12.21,0,.15,0,.36-.11.44.14,0,.03,0,.06.01.09Z" fill="#f15b2c"/><path d="m266.37,48.18c-.11.67.05,1.32.14,1.97.03.2.04.41-.04.61-.05.11-.06.23-.02.34.18.48.07.94-.05,1.4-.03.11-.05.24-.02.34.1.26.05.49-.06.73-.05.1-.1.22-.04.33.16.32.03.61-.06.9-.06.21-.17.4-.08.63.02.05-.01.14-.04.2-.67,1.14-1,2.44-1.64,3.59-.07.12-.11.26-.19.37-.55.74-1.11,1.47-1.66,2.2-.28.36-.79.45-1.02.87-.17.31-.41.55-.65.8-.56.59-1.26.97-2,1.27-.44.18-.89.34-1.33.55-.52.24-1.08.43-1.65.55-.35.08-.73.01-1.09,0-.36-.01-.53-.26-.54-.64-.02-.45.08-.76.55-1.02.53-.29,1.13-.53,1.53-1.04.15-.19.41-.24.6-.38.75-.56,1.37-1.26,2.09-1.84.09-.08.15-.17.2-.27.2-.42.59-.69.92-1,.06-.06.1-.12.12-.2.07-.36.27-.66.48-.95.38-.5.6-1.05.79-1.64.14-.41.31-.81.46-1.22.08-.23.24-.46.04-.72,0,0-.01-.03,0-.03.27-.29.07-.7.21-1,.18-.36.23-.76.39-1.13.11-.26.12-.51-.01-.77-.17-.33-.03-.68-.02-1.01.01-.33.02-.66.03-.99.02-.64-.01-1.28-.01-1.91,0-.25-.09-.47-.13-.71-.15-.87-.28-1.75-.44-2.62-.06-.31-.16-.61-.36-.88-.14-.2-.17-.49-.23-.75-.17-.64-.41-1.25-.64-1.86-.13-.35-.23-.72-.4-1.05-.34-.68-.46-1.46-.93-2.07-.33-.43-.58-.91-.85-1.36-.26-.44-.56-.87-.78-1.33-.21-.44-.53-.77-.82-1.12-.35-.43-.66-.88-1.03-1.29-.8-.89-1.68-1.69-2.68-2.37-.42-.28-.79-.62-1.28-.8-.24-.09-.45-.28-.61-.5-.24-.33-.29-.67-.11-1.04.19-.38.55-.52.92-.46.65.11,1.3.16,1.84.66.27.25.64.44.97.64.32.2.62.42.91.66.49.4.95.82,1.48,1.17.38.26.66.63.98.96.49.5.94,1.04,1.36,1.6.41.56.85,1.1,1.27,1.66.7.93,1.04,2.04,1.64,3.01.54.86.81,1.84,1.32,2.71.27.46.52,1.01.6,1.59.01.08.05.16.11.21.38.4.67.89.77,1.41.08.43.35.81.34,1.24,0,.65.16,1.27.2,1.92.02.29.31.53.21.85Z" fill="#0f75bc"/><path d="m212.8,65.3c-.53.16-1.05-.16-1.62-.35-.98-.31-1.92-.7-2.83-1.16-.48-.25-.98-.55-1.31-1.02-.12-.18-.33-.27-.4-.52-.06-.19-.25-.39-.46-.49-.51-.25-.84-.68-1.15-1.12-.18-.26-.36-.53-.57-.78-.77-.89-1.15-1.98-1.61-3.03-.25-.55-.38-1.16-.75-1.65-.02-.03-.05-.06-.05-.09.11-.59-.4-1.12-.16-1.71,0-.02.02-.05,0-.07-.27-.47-.05-1.01-.19-1.5-.1-.38-.19-.78-.02-1.18.03-.08.06-.19.03-.27-.26-.61.08-1.2.07-1.8,0-.19.06-.36,0-.57-.07-.2-.09-.46,0-.64.34-.61.34-1.3.36-1.94.01-.57.2-1.1.34-1.61.11-.41.18-.92.59-1.23.35-.26.36-.73.52-1.1.28-.65.55-1.3.9-1.93.23-.41.34-.89.57-1.32.55-1.02,1.05-2.07,1.6-3.08.18-.34.46-.63.7-.93.57-.73,1.15-1.46,1.73-2.18.41-.51.87-1,1.37-1.4.69-.54,1.36-1.12,2.06-1.65.56-.42,1.15-.79,1.72-1.18.54-.37,1.23-.54,1.91-.42.61.1.87.82.54,1.36-.19.32-.48.55-.81.68-.58.23-1.01.67-1.53.99-.4.25-.79.53-1.11.87-.62.67-1.32,1.26-1.84,2.02-.24.36-.56.66-.8,1.01-.38.55-.78,1.11-1.06,1.73-.06.13-.12.24-.19.36-.47.76-1.05,1.46-1.32,2.32-.21.67-.56,1.28-.77,1.95-.17.54-.35,1.1-.59,1.63-.09.19-.06.44-.16.63-.43.79-.64,1.66-.7,2.51-.07.92-.43,1.78-.41,2.72.03.98.04,1.96.09,2.94,0,.1.04.22-.02.3-.23.36-.06.69.03,1.05.08.34.33.64.32.96-.02.41.23.76.14,1.19-.07.36.17.7.29,1.05.09.25.22.48.29.74.19.7.57,1.3.98,1.89.08.12.17.25.21.39.1.39.38.62.66.87.1.09.21.19.28.3.44.73,1.16,1.19,1.74,1.78.51.52,1.17.83,1.69,1.33.34.32.8.53,1.23.76.42.23.61.69.44,1.22-.08.27-.4.41-.98.36Z" fill="#0f75bc"/><path d="m268.53,20.11c-.06,1.02-.37,1.95-.95,2.81-.46.68-.87,1.39-1.39,2.03-.45.54-.99.99-1.46,1.52-.02.03-.05.05-.07.07-.08.11-.26.19-.19.33.05.11.23.05.35.06,1.18.12,2.37.08,3.47-.38.44-.18.74.08,1.11.05.03,0,.06.03.08.06.56.69.66,1.88-.24,2.47-.18.12-.39.12-.6.13-1.12.05-2.24-.07-3.35.09-.58.08-1.11-.16-1.67-.09-.71.09-1.39-.12-2.09-.15-.5-.02-.77-.49-.7-1.12.04-.36.2-.67.43-.93.35-.4.63-.85,1.07-1.16.31-.22.55-.52.75-.85.19-.31.41-.58.72-.78.02-.01.05-.02.05-.04.31-.8,1.05-1.27,1.47-1.99.37-.64.64-1.3.7-2.04.07-.83-.2-1.29-1.15-1.11-1.02.19-1.93.55-2.67,1.32-.54.57-.99.6-1.46.1-.26-.28-.38-.69-.24-1.06.37-.99,1.13-1.63,2.06-2.07.75-.35,1.55-.55,2.33-.81.97-.32,2.47.38,3.05,1.19.3.42.53.86.59,1.38,0,.33,0,.65,0,.98Z" fill="#0f75bc"/><path d="m163.62,71.99c0-.85,0-1.7,0-2.56,0-.19.02-.36.26-.36.98.02,1.96-.09,2.93.06,1.03.16,1.57,1.04,1.26,1.94-.09.25-.23.45-.44.6-.24.16-.19.25.04.36.73.37,1.01,1.12.7,1.86-.26.62-.8.89-1.41.97-1,.13-2,.05-3,.06-.25,0-.33-.14-.33-.38,0-.85,0-1.7,0-2.56Zm2.1.4c-.29,0-.55,0-.8,0-.21,0-.32.08-.32.3,0,.34,0,.69,0,1.03,0,.2.09.29.29.3.59.02,1.17.03,1.75-.04.47-.06.77-.32.79-.72.02-.41-.22-.68-.69-.81-.35-.09-.71-.05-1.02-.06Zm-.16-.85c.35-.02.75.06,1.12-.13.35-.17.48-.42.42-.81-.05-.31-.3-.55-.64-.57-.49-.03-.98-.04-1.48-.05-.26,0-.42.1-.37.39.01.08,0,.16,0,.24q0,.92.95.92Z" fill="#6e6f72"/><path d="m206.33,72.01c0-.82,0-1.64,0-2.45,0-.45.04-.49.5-.48.86.02,1.73-.05,2.59.05,1.27.15,1.97,1.2,1.61,2.4-.15.49-.48.84-.94,1.04-.29.12-.29.25-.11.48.38.51.74,1.03,1.1,1.54.05.08.13.15.08.25-.05.1-.15.08-.24.09-.55.07-.97-.07-1.25-.61-.2-.38-.51-.71-.75-1.08-.17-.27-.38-.39-.71-.38-.91.02-.84-.06-.84.84,0,.3,0,.6,0,.9,0,.22-.1.3-.31.32-.68.05-.73.02-.73-.67,0-.75,0-1.5,0-2.25Zm2.09-1.98c-.3,0-.54,0-.78,0-.21,0-.3.07-.29.28,0,.15,0,.3,0,.45.02.39-.17.88.08,1.13.27.27.76.07,1.16.09.31.02.62,0,.91-.13.39-.18.58-.5.55-.94-.02-.41-.23-.67-.64-.81-.35-.12-.71-.04-1.01-.06Z" fill="#6e6f72"/><path d="m94.77,71.96c0-.85,0-1.7,0-2.56,0-.23.07-.34.31-.34.92.03,1.84-.07,2.76.06.75.1,1.4.42,1.59,1.22.22.92.05,1.78-.94,2.22-.27.12-.29.23-.12.46.36.48.7.97,1.04,1.46.24.35.23.37-.17.41-.11.01-.23.01-.34.02-.31.02-.5-.13-.66-.38-.25-.4-.56-.76-.81-1.16-.23-.38-.52-.53-.96-.51-.68.03-.68,0-.68.69,0,.36-.02.71-.01,1.07,0,.23-.09.32-.3.31-.02,0-.05,0-.07,0q-.62.01-.62-.61c0-.78,0-1.57,0-2.35Zm1.01-.98h-.03c0,.24,0,.48,0,.73,0,.18.07.26.24.26.53,0,1.06.03,1.59-.03.62-.07.96-.5.91-1.05-.04-.53-.45-.86-1.06-.86-.43,0-.85.02-1.28,0-.3-.02-.39.1-.37.38.02.19,0,.39,0,.59Z" fill="#6e6f72"/><path d="m135.11,71.99c0-.85,0-1.7,0-2.56,0-.25.07-.37.33-.36.92.02,1.84-.05,2.76.05.8.09,1.4.56,1.58,1.24.22.79-.01,1.55-.59,1.99-.05.04-.11.08-.17.11q-.5.29-.15.78c.31.43.62.86.92,1.29.06.09.17.18.1.31-.06.11-.19.06-.28.07-.54.09-.91-.11-1.19-.59-.21-.38-.51-.71-.74-1.08-.18-.28-.4-.4-.74-.39-.92.02-.84-.05-.84.85,0,.31,0,.62,0,.93,0,.19-.09.27-.27.28-.03,0-.07,0-.1,0q-.61.02-.61-.59c0-.78,0-1.57,0-2.35Zm2.02-1.96c-.25,0-.51,0-.76,0-.19,0-.28.07-.28.26,0,.47,0,.94,0,1.41,0,.15.05.28.23.27.54,0,1.08.03,1.62-.03.56-.06.93-.52.9-1-.04-.55-.45-.9-1.06-.91-.22,0-.44,0-.65,0Z" fill="#6e6f72"/><path d="m103.03,72c0-.84.01-1.68,0-2.52,0-.32.12-.42.43-.42,1.16.01,2.33,0,3.49,0,.27,0,.43.05.43.38-.01.5-.02.55-.42.56-.81.01-1.61,0-2.42,0q-.47,0-.47.48c0,.22.01.44,0,.66-.02.29.1.39.38.39.73,0,1.45.01,2.18,0,.34-.01.37.15.36.42,0,.27.02.5-.38.49-.71-.02-1.43,0-2.14-.01-.29,0-.43.09-.4.4.02.26.02.53,0,.79-.02.27.09.37.36.36.84-.01,1.68,0,2.52,0,.16,0,.37-.06.43.12.08.22.07.48,0,.71-.03.11-.17.11-.27.11-1.24,0-2.49,0-3.73,0-.26,0-.34-.12-.33-.36,0-.85,0-1.71,0-2.56Z" fill="#6e6f72"/><path d="m118.44,72c0-.85,0-1.71,0-2.56,0-.28.11-.37.36-.37,1.21,0,2.42,0,3.63,0,.23,0,.35.08.31.32-.01.09-.01.19,0,.28.05.3-.14.34-.37.34-.69,0-1.38,0-2.07,0q-.83,0-.83.82t.72.71c.62,0,1.25.02,1.87,0,.33-.01.35.17.34.41-.01.23.06.5-.33.5-.73-.01-1.45,0-2.18,0-.31,0-.44.1-.42.42.02.26.02.53,0,.79-.01.26.1.34.35.34.84,0,1.68,0,2.52,0,.43,0,.47.04.47.44,0,.46-.03.5-.48.5-1.15,0-2.31,0-3.46,0-.34,0-.44-.12-.43-.44.02-.83,0-1.66,0-2.49Z" fill="#6e6f72"/><path d="m253.91,69.27c0,1.96,0,3.91,0,5.87-.02.02-.03.04-.05.06-.53.1-.86-.09-1.15-.57-.8-1.33-1.67-2.61-2.51-3.91-.01-.06-.03-.08-.07-.01,0,1.48-.01,2.95-.02,4.43-.02.02-.03.04-.05.06q-.76.04-.76-.72c0-1.66,0-3.32,0-4.98,0-.27.08-.31.32-.32.37-.02.57.1.77.41.82,1.32,1.68,2.61,2.53,3.91.05.07.1.14.21.2v-4.44s.03-.04.05-.06c.23,0,.46,0,.69,0,.02.02.03.04.05.06Z" fill="#f15b2c"/><path d="m128.79,69.07c.41-.12.57.09.71.42.71,1.65,1.43,3.29,2.15,4.93.2.47.18.46-.33.51-.44.04-.63-.15-.78-.53-.44-1.06-.15-.86-1.32-.88-.5,0-.99,0-1.49,0-.22,0-.37.07-.45.29-.11.29-.24.57-.37.85-.11.24-.82.38-1.01.2-.12-.11-.02-.22.02-.31.3-.71.61-1.42.92-2.12.43-.98.87-1.96,1.28-2.94.14-.32.28-.56.67-.42Zm0,3.51c.23,0,.46,0,.69,0,.23,0,.29-.08.2-.29-.25-.57-.49-1.14-.74-1.71-.03-.06-.04-.14-.13-.15-.11-.01-.13.09-.16.15-.25.58-.49,1.16-.74,1.74-.09.2.01.25.19.25.23,0,.46,0,.69,0Z" fill="#6e6f72"/><path d="m193.75,74.92c-.35.1-.51-.13-.65-.47-.48-1.1-.14-.92-1.39-.94-.46,0-.92.01-1.38,0-.29-.01-.45.11-.54.37-.09.25-.2.49-.31.73-.12.27-.78.44-1.02.26-.14-.11-.03-.23.01-.34.42-.98.85-1.96,1.27-2.94.33-.75.66-1.49.98-2.24.09-.22.23-.34.47-.31.29.03.61-.1.78.31.71,1.68,1.45,3.35,2.19,5.03q.24.54-.4.54Zm-2.43-2.34c.22,0,.44,0,.66,0,.24.01.32-.08.22-.31-.25-.57-.5-1.14-.74-1.71-.03-.06-.05-.14-.13-.15-.08,0-.12.07-.14.13-.25.59-.5,1.19-.75,1.78-.08.19,0,.25.19.25.23,0,.46,0,.69,0Z" fill="#6e6f72"/><path d="m151.79,71.96c0-.83.02-1.66,0-2.49,0-.34.12-.44.42-.4.05,0,.09,0,.14,0,.32-.04.45.09.44.43-.02.55,0,1.11,0,1.66,0,.27.09.4.39.39.69-.02,1.38-.03,2.07-.02.26,0,.38-.1.37-.37-.01-.59,0-1.18,0-1.76,0-.21.06-.28.28-.28.67,0,.69-.01.7.67.02,1.58.01,3.16,0,4.74,0,.39-.05.4-.57.4-.29,0-.43-.09-.42-.42.03-.56,0-1.13,0-1.69,0-.27-.1-.37-.37-.36-.7.01-1.41,0-2.11,0-.25,0-.36.1-.35.35,0,.58-.01,1.15,0,1.73.01.31-.11.42-.4.4-.09,0-.18,0-.28,0-.23,0-.32-.09-.32-.33.01-.88,0-1.75,0-2.63Z" fill="#6e6f72"/><path d="m202.46,74.92c-.33.09-.49-.13-.63-.45-.49-1.14-.15-.93-1.38-.95-.47,0-.94,0-1.42-.01-.26,0-.44.1-.52.36-.06.17-.14.34-.21.51q-.24.56-.86.55c-.35,0-.4-.06-.26-.38.35-.81.7-1.62,1.06-2.43.4-.92.81-1.83,1.2-2.75.11-.26.28-.33.54-.31.28.02.55-.06.71.31.71,1.68,1.46,3.35,2.19,5.02.23.53.22.54-.42.54Zm-2.41-2.34c.24,0,.48,0,.72,0,.15,0,.26-.05.18-.23-.26-.6-.52-1.2-.79-1.8-.08-.19-.19-.15-.26.01-.26.59-.51,1.18-.75,1.78-.06.15-.02.24.17.24.24,0,.48,0,.72,0Z" fill="#6e6f72"/><path d="m176.82,74.92c-.32.08-.49-.11-.63-.45-.49-1.15-.16-.95-1.44-.97-.47,0-.94,0-1.42,0-.22,0-.36.09-.44.31-.11.29-.23.57-.36.86-.1.22-.84.36-1.02.2-.13-.12,0-.24.04-.34.37-.86.74-1.71,1.11-2.56.37-.84.74-1.68,1.11-2.53.09-.22.19-.44.48-.41.32.03.65-.07.84.39.69,1.67,1.43,3.31,2.16,4.96.23.53.23.54-.42.54Zm-2.4-2.34c.23,0,.46,0,.69,0,.19,0,.26-.08.19-.25-.25-.59-.51-1.18-.77-1.77-.07-.16-.17-.2-.25,0-.25.59-.5,1.18-.76,1.77-.08.18-.01.26.18.26.24,0,.48,0,.72,0Z" fill="#6e6f72"/><path d="m112.76,75c-.62-.02-1.36-.21-2-.69-.23-.17-.27-.33-.05-.53.06-.05.11-.12.16-.18.14-.22.29-.21.48-.06.55.43,1.17.62,1.88.51.42-.07.69-.3.72-.63.04-.34-.12-.58-.55-.73-.48-.17-.97-.29-1.45-.45-.92-.3-1.32-.85-1.25-1.7.06-.76.66-1.35,1.53-1.5.79-.14,1.53.01,2.22.43.37.23.38.25.12.6-.05.06-.1.13-.14.19-.11.16-.24.19-.41.08-.47-.33-1.01-.42-1.58-.38-.34.02-.62.21-.69.52-.07.3.06.57.38.73.45.23.96.3,1.44.47.18.07.37.12.55.2,1.07.53,1.2,1.97.24,2.69-.42.31-.9.45-1.59.43Z" fill="#6e6f72"/><path d="m182.88,74.92c-.68,0-1.36,0-2.04,0-.3,0-.39-.15-.37-.4.01-.26.11-.49.28-.69.97-1.17,1.94-2.34,2.9-3.52.06-.08.19-.14.15-.25-.05-.13-.2-.09-.31-.09-.83,0-1.66-.02-2.49,0-.36,0-.42-.15-.42-.46,0-.31.09-.46.43-.45,1.29.01,2.58.01,3.87,0,.3,0,.41.11.4.41,0,.27-.12.49-.28.69-.96,1.15-1.91,2.3-2.86,3.46-.07.09-.23.16-.15.31.07.12.2.05.32.05.91,0,1.82.02,2.73.03.16,0,.22.08.24.23.09.56,0,.68-.57.68-.61,0-1.22,0-1.83,0Z" fill="#6e6f72"/><path d="m146.07,75.01c-1.45,0-2.57-.89-2.89-2.32-.32-1.44.33-2.86,1.67-3.43,1.14-.49,2.25-.37,3.27.37.23.17.3.34.05.55-.05.04-.09.1-.13.16-.17.26-.35.28-.59.08-.41-.34-.89-.52-1.44-.48-1.44.1-1.94,1.44-1.79,2.4.26,1.62,1.9,2.26,3.22,1.28.32-.24.82-.07.93.32.04.13-.06.19-.13.26-.59.58-1.3.85-2.17.82Z" fill="#6e6f72"/><path d="m225.09,72.81c0,.77,0,1.54,0,2.31,0,.02-.02.05-.02.07q-.76.06-.76-.68c0-1.65.01-3.29,0-4.94,0-.33.1-.4.4-.38.78.05,1.57-.08,2.34.08.76.15,1.24.65,1.34,1.34.12.84-.17,1.47-.9,1.84-.21.11-.18.18-.09.35.43.78.85,1.57,1.3,2.41-.24,0-.43-.01-.62,0-.2.02-.31-.05-.4-.23-.33-.67-.7-1.32-1.03-1.99-.1-.2-.2-.3-.44-.28-.36.03-.71,0-1.07,0-.05,0-.07.04-.06.09Zm.06-2.99c-.05,0-.07.04-.06.09v2.1s0,.08.06.09c.44,0,.87.01,1.31,0,.76-.04,1.11-.46,1.11-1.29,0-.55-.43-.94-1.11-.97-.44-.02-.87,0-1.31,0Z" fill="#f15b2c"/><path d="m241.61,72.25c-.03-.88.12-1.67.65-2.34.93-1.16,3.29-1.16,3.95.76.35,1.03.35,2.09-.01,3.12-.36,1.02-1.14,1.51-2.27,1.5-.96,0-1.77-.6-2.11-1.55-.18-.49-.25-1-.21-1.49Zm.78.32s.02.06.02.09c0,.04,0,.09,0,.13-.05.03-.03.05,0,.08.03.32.11.63.26.92.3.59.77.9,1.45.86.64-.04,1.09-.37,1.29-.97.33-.99.33-1.99-.02-2.98-.21-.58-.65-.91-1.28-.94-.67-.04-1.15.27-1.45.86-.15.29-.22.6-.25.93-.04.02-.06.04,0,.08,0,.04,0,.09-.01.13,0,.03-.01.06-.02.09,0,.24,0,.48,0,.72Z" fill="#f15b2c"/><path d="m221.82,75.2c-.81.04-.81.04-1.07-.67-.11-.3-.15-.7-.37-.86-.2-.15-.6-.04-.91-.05-.41,0-.83.02-1.24,0-.25-.02-.35.08-.41.3-.09.3-.22.58-.29.88-.08.32-.23.47-.59.43-.4-.04-.4,0-.26-.38.68-1.78,1.36-3.56,2.02-5.34.09-.25.21-.32.47-.32.26,0,.4.06.5.33.67,1.81,1.36,3.61,2.05,5.41.03.08.06.17.1.28Zm-1.63-2.21c-.33-.92-.66-1.82-1.01-2.79-.35.97-.67,1.87-1,2.79h2.01Z" fill="#f15b2c"/><path d="m261.81,75.21c-.21,0-.41-.01-.6,0-.17.01-.24-.05-.3-.21-.13-.39-.29-.77-.41-1.17-.06-.17-.14-.23-.32-.22-.67.01-1.34.01-2,0-.19,0-.29.05-.35.24-.1.34-.26.66-.35,1.01-.07.29-.22.39-.5.35-.13-.02-.27,0-.46,0,.25-.66.49-1.29.73-1.92.49-1.28.98-2.55,1.45-3.83.1-.27.25-.27.47-.27.21,0,.37,0,.47.27.68,1.84,1.39,3.67,2.09,5.5.03.07.05.15.08.26Zm-3.64-2.24h2c-.34-.92-.66-1.82-1.01-2.77-.35.98-.67,1.87-1,2.77Z" fill="#f15b2c"/><path d="m238.11,69.82c-1.03,0-1.99-.01-2.94,0-.27,0-.28-.11-.29-.32,0-.23.04-.32.3-.31,1.14.01,2.28,0,3.42.01.15,0,.38-.1.43.07.05.2.09.45-.06.66-.45.65-.9,1.31-1.35,1.96-.6.88-1.2,1.76-1.83,2.69,1.07,0,2.07,0,3.08,0,.25,0,.34.04.33.31,0,.26-.06.33-.32.32-1.19-.02-2.37,0-3.56-.01-.16,0-.41.11-.46-.07-.07-.21-.06-.46.1-.69.63-.9,1.25-1.82,1.87-2.73.42-.61.84-1.23,1.29-1.9Z" fill="#f15b2c"/><path d="m232.01,69.28c0,1.95,0,3.9,0,5.84,0,.02-.02.05-.02.07q-.76.06-.76-.68c0-1.65,0-3.29,0-4.94,0-.32.08-.44.39-.39.12.02.25.01.38.02,0,.02.02.05.02.07Z" fill="#f15b2c"/><path d="m110.81,29.85c-.08.06-.18.04-.27.04-4.13,0-8.26,0-12.39,0-.08,0-.16-.01-.24-.02.08-.06.18-.03.27-.03,4.14,0,8.28,0,12.42,0,.07,0,.14,0,.21.02Z" fill="#a1a1a3"/><path d="m120.14,39.63c-.05-.63-.03-1.26-.03-1.89.09.63.06,1.26.03,1.89Z" fill="#a1a1a3"/><path d="m123.19,48.46c.06.51.02,1.03.02,1.55-.1-.51-.05-1.03-.02-1.55Z" fill="#a1a1a3"/><path d="m170.49,54.36c0-.51,0-1.02,0-1.53.1.51.05,1.02,0,1.53Z" fill="#a1a1a3"/><path d="m149.49,43.48c.03.49.03.99,0,1.48-.06-.49-.06-.99,0-1.48Z" fill="#a1a1a3"/><path d="m135.23,56.4c-.4.09-.79.09-1.18,0,.4,0,.79,0,1.18,0Z" fill="#a1a1a3"/><path d="m268.53,20.11c0-.33,0-.65,0-.98.09.33.06.65,0,.98Z" fill="#a1a1a3"/><path d="m220.57,41.58c.07-.07.15-.07.23-.04-.07.05-.15.06-.23.04Z" fill="#f5825f"/><path d="m198.85,38.62c-.01-.06-.01-.11.04-.15.02.06,0,.1-.04.15Z" fill="#f5825f"/><path d="m198.87,37.88c0-.06,0-.12,0-.18.05.06.06.12,0,.18Z" fill="#f5825f"/><path d="m174.03,61.1s.06.08.05.13c-.05-.03-.07-.07-.05-.13Z" fill="#f5825f"/><path d="m255.6,56.13s0-.06-.01-.09c0,.02.02.04.02.06,0,0,0,.02-.01.03Z" fill="#f5825f"/><path d="m234.4,56.59s-.02.06-.03.09c0-.03.02-.06.03-.09Z" fill="#f5825f"/><path d="m255.59,61.17s0-.06.01-.09c.03.03.02.06-.01.09Z" fill="#f5825f"/><path d="m231.72,52.67s0-.07.01-.1c.04.04.03.07-.01.1Z" fill="#f5825f"/><path d="m232.01,69.28s-.02-.05-.02-.07c.06,0,.06.03.02.07Z" fill="#f5825f"/><path d="m253.17,69.21s-.03.04-.05.06c-.02-.05,0-.07.05-.06Z" fill="#f5825f"/><path d="m253.91,69.27s-.03-.04-.05-.06c.05,0,.07.01.05.06Z" fill="#f5825f"/><path d="m215.99,43.27s.07,0,.1-.01c-.03.04-.06.05-.1.01Z" fill="#f5825f"/><path d="m212.26,43.26s.07,0,.1.01c-.04.04-.07.03-.1-.01Z" fill="#f5825f"/><path d="m231.73,43.06s0-.07-.01-.1c.04.03.05.06.01.1Z" fill="#f5825f"/><path d="m237.73,42.01s.05,0,.08,0c-.03,0-.05,0-.08,0Z" fill="#f5825f"/><path d="m222.09,41.52s.07,0,.08.04c-.03-.01-.05-.03-.08-.04Z" fill="#f5825f"/><path d="m198.89,38.14s-.02-.06-.03-.1c0,.03.02.06.03.1Z" fill="#f5825f"/><path d="m73.47,36.73s.05-.03.08,0c-.03,0-.05,0-.08,0Z" fill="#f5825f"/><path d="m70.77,36.74s.05-.05.08,0c-.03,0-.05,0-.08,0Z" fill="#f5825f"/><path d="m250.12,70.71c.04-.07.06-.04.07.01-.02,0-.05,0-.07-.01Z" fill="#f5825f"/><path d="m225.09,72.81c-.01-.05,0-.08.06-.09-.02.03-.04.06-.06.09Z" fill="#f5825f"/><path d="m223.55,36.47s-.06,0-.09-.01c.03,0,.06,0,.09.01Z" fill="#f5825f"/><g><path d="m13.96,48.77s-.09-.02-.13-.03c-.03,0-.06,0-.09,0-.06,0-.11,0-.17,0-.03,0-.06.02-.09.02-.25.02-.5.03-.75,0-.04-.05-.09-.05-.14-.03-.3-.06-.61.01-.91,0-.28-.01-.36-.14-.2-.37.13-.2.29-.38.44-.57.68-.86,1.36-1.71,2.05-2.57.14-.17.22-.38.29-.58,1.03-2.81,2.34-5.47,4.02-7.95,1.3-1.92,2.8-3.69,4.45-5.31.76-.75,1.54-1.48,2.39-2.14.08-.06.21-.12.19-.22-.03-.13-.18-.11-.29-.13-2.55-.63-5.1-1.29-7.67-1.87-.06-.01-.11-.03-.17-.05-.08-.03-.22,0-.23-.11-.01-.15.14-.12.23-.14,3.7-.99,7.4-1.97,11.09-2.95,4.44-1.18,8.89-2.35,13.33-3.53,2.93-.78,5.87-1.54,8.79-2.36.68-.19,1.27-.04,1.89.12,4.83,1.26,9.65,2.53,14.48,3.79,2.62.69,5.25,1.36,7.87,2.04,2.99.78,5.98,1.57,8.97,2.35.42.11.85.22,1.27.33.11.03.3-.01.29.17,0,.14-.17.13-.28.16-1.27.36-2.55.71-3.82,1.07-3.5,1.01-7.03,1.91-10.51,2.97-.54.17-.54.16-.17.6,1.31,1.51,2.43,3.15,3.33,4.94.1.2.16.36-.17.34-.02-.04-.05-.05-.08,0h-2.62s-.05-.03-.08,0c-.39,0-.78,0-1.17.02-.35.02-.58-.12-.76-.42-.91-1.5-2.06-2.8-3.35-3.97-2.74-2.49-5.9-4.21-9.52-5.08-.91-.22-1.83-.32-2.75-.44-1.01-.13-2.02-.13-3.03-.11-1.73.04-3.42.32-5.09.79-2.84.8-5.38,2.19-7.67,4.03-1.58,1.27-2.92,2.77-4.06,4.44-.01.02-.02.04-.03.06-.26.51-.63.74-1.26.71-1.28-.07-2.56-.03-3.84-.04-.02-.01-.04-.03-.06-.04-.05-.1.03-.18.07-.25,1.07-1.98,2.29-3.86,3.84-5.5.22-.23.2-.31-.13-.4-1.48-.37-2.97-.74-4.45-1.1-.24-.06-.46.01-.64.18-.86.8-1.75,1.56-2.59,2.39-1.77,1.75-3.3,3.67-4.69,5.73-1.57,2.34-2.83,4.83-3.9,7.43-.05.13-.06.26-.03.36.14.52.12,1.05.14,1.57,0,.1.04.2.05.3-.01.08-.02.15.05.21.01.11.02.23-.02.34,0,.03,0,.06,0,.09,0,.15,0,.3,0,.44,0,.03.02.06.02.09.06.17.06.29-.17.28-.56-.03-1.12.05-1.67-.08-.02-.03-.05-.04-.07,0Z" fill="#f15b2c"/><path d="m25.51,49.67c0-.08,0-.16,0-.24,0-.03-.02-.06-.02-.09-.15-.84-.15-1.67,0-2.51,0,0,.02,0,.02,0,0,0,0-.01,0-.01,0-.07.01-.13.02-.2,0,0,0,0,0,0,0-.06-.01-.13-.02-.19,0,0,0-.02,0-.02,0-.07,0-.13,0-.2,0,0,0-.01,0-.01,0-.16,0-.31.01-.47,0,0,0,0,0,0,.13-.35.1-.73.13-1.09.1-1.03.39-2.02.61-3.02.06-.25.17-.36.45-.35,1.18.01,2.35,0,3.53,0,.37,0,.43.08.32.44-.47,1.48-.73,3.01-.92,4.55-.07.59-.03,1.2-.03,1.79-.04.02-.05.05,0,.08v1.17s-.03.05,0,.08c.17,2.51.71,4.93,1.72,7.24.99,2.28,2.33,4.32,4.03,6.14,2.42,2.59,5.3,4.47,8.63,5.65,1.24.44,2.51.75,3.81.95,1.47.22,2.95.3,4.43.21,2.6-.16,5.1-.78,7.48-1.86,2.58-1.17,4.89-2.72,6.82-4.8,2.88-3.1,4.77-6.71,5.54-10.89.14-.78.17-1.57.27-2.36.1-.79.16-1.58.09-2.36-.15-1.9-.38-3.79-1.01-5.61-.13-.37-.1-.41.3-.42,1.19,0,2.38,0,3.56,0,.26,0,.39.1.44.34.3,1.29.54,2.59.68,3.9.14,1.2.14,2.39.12,3.59-.03,1.55-.24,3.09-.57,4.61-.6,2.77-1.68,5.35-3.12,7.77-.81,1.36-1.81,2.58-2.85,3.77-1.85,2.1-4,3.8-6.43,5.17-2.33,1.32-4.8,2.26-7.43,2.77-.95.19-1.91.4-2.9.39-.12,0-.25.04-.37.06-.05,0-.1,0-.15.01-1.17,0-2.33,0-3.5,0-.03,0-.06,0-.09-.01-1.07-.14-2.14-.25-3.2-.46-3.46-.67-6.63-2.03-9.51-4.06-5.6-3.95-9.07-9.3-10.5-15.99-.16-.73-.32-1.47-.31-2.23,0-.1-.04-.2-.07-.3,0-.03,0-.06-.01-.09,0-.24,0-.48,0-.73,0-.03,0-.07,0-.1Z" fill="#f15b2c"/><path d="m49.03,68.58c-1.5-.11-2.96-.46-4.4-.89-.27-.08-.38-.2-.38-.5,0-5.1,0-10.2,0-15.31,0-1.47.78-2.45,2.11-2.69,0,0,0,0,0,0,.09,0,.18-.01.26-.02,0,0,.02,0,.02,0,.11,0,.22,0,.34.01,0,0,0,0,0,0,.11,0,.23,0,.34-.01.02,0,.04,0,.07.01.2.03.38.11.54.22,1.79,1.35,4.8,1.29,6.65-.03.5-.35,1.09-.26,1.63-.13,1.29.3,1.93,1.22,1.93,2.63,0,4.8,0,9.6,0,14.41,0,.16,0,.32,0,.48-.05.03-.03.05,0,.08,0,.57,0,.59-.52.75-1.1.34-2.19.66-3.34.8-.97.12-1.92.28-2.9.22-.03-.05-.05-.03-.08,0-.21.03-.41.03-.62,0-.02-.04-.04-.06-.08,0-.5,0-1.01,0-1.51-.01-.03,0-.06-.02-.08-.03Z" fill="#f15b2c"/><path d="m38.64,51.49c.63-.08,1.21-.29,1.74-.63,1.1-.7,2.53-.16,2.86,1.11.14.52.09,1.05.09,1.58,0,3.95-.01,7.9-.01,11.85,0,.41-.07.8-.25,1.17-.17.36-.31.41-.68.23-1.81-.83-3.45-1.91-4.97-3.21-1.87-1.6-3.29-3.55-4.55-5.65-.02-.04-.03-.09-.04-.13,0-1.9,0-3.79,0-5.69.14-.93.9-1.54,1.82-1.55.44,0,.81.1,1.17.33.49.31,1.04.49,1.61.58.4.08.79.09,1.19,0Z" fill="#0f75bc"/><path d="m64.86,51.5c.73-.04,1.34-.37,1.96-.71,1.27-.68,2.8.26,2.78,1.61-.02,1.35.01,2.7.02,4.04,0,.38-.11.72-.29,1.05-.78,1.44-1.66,2.83-2.74,4.06-1.9,2.17-4.14,3.92-6.76,5.17-.26.13-.4.06-.5-.2-.15-.37-.25-.74-.25-1.14,0-4.21,0-8.41,0-12.62,0-.47.09-.91.34-1.32.55-.9,1.72-1.14,2.62-.59.54.34,1.14.55,1.77.63.35.09.7.08,1.05,0Z" fill="#0f75bc"/><path d="m56.38,44.37c.07,2.89-2.19,5.23-5.19,5.2-2.62-.02-5.05-1.79-5.12-5.15-.06-3.08,2.3-5.19,5.14-5.24,2.81-.05,5.27,2.3,5.17,5.19Z" fill="#f15b2c"/><path d="m41.93,46.78c.23,2.02-1.39,4.07-3.79,4.13-2.18.05-3.94-1.55-4-3.82-.06-2.41,1.66-3.93,3.65-4.04,2.58-.14,4.19,1.94,4.14,3.73Z" fill="#0f75bc"/><path d="m64.93,43.1c1.57.14,2.97,1.5,3.29,3.11.45,2.24-1.22,4.43-3.44,4.68-1.54.17-3.79-.85-4.22-3.04-.45-2.29.81-4.21,3.11-4.74.42,0,.84,0,1.26,0Z" fill="#0f75bc"/><path d="m32.84,52.13c0,1.9,0,3.79,0,5.69-.12-.53-.04-1.07-.04-1.61-.02-1.3,0-2.59,0-3.89,0-.07,0-.14.05-.19Z" fill="#a1a1a3"/><path d="m64.93,43.1c-.42,0-.84,0-1.26,0,.42-.08.84-.08,1.26,0Z" fill="#a1a1a3"/><path d="m38.64,51.49c-.4.09-.79.08-1.19,0,.4,0,.79,0,1.19,0Z" fill="#a1a1a3"/><path d="m64.86,51.5c-.35.08-.7.09-1.05,0,.35,0,.7,0,1.05,0Z" fill="#a1a1a3"/><path d="m15.88,47.61c-.06-.06-.06-.13-.05-.21.04.06.07.13.05.21Z" fill="#f5825f"/><path d="m47.41,49.19s-.05,0-.07-.01c.03-.04.05-.02.07.01Z" fill="#a1a1a3"/><path d="m12.58,48.72c.05-.01.11-.01.14.03-.05-.01-.1-.02-.14-.03Z" fill="#f5825f"/><path d="m52.7,73.63c.05,0,.1,0,.15-.01-.05.03-.1.04-.15.01Z" fill="#f5825f"/><path d="m58.17,66.85s-.06-.04,0-.08c0,.03,0,.05,0,.08Z" fill="#f5825f"/><path d="m49.03,68.58s.06.02.08.03c-.03,0-.06-.02-.08-.03Z" fill="#f5825f"/><path d="m50.63,68.62s.05-.03.08,0c-.03,0-.05,0-.08,0Z" fill="#f5825f"/><path d="m51.32,68.63s.05-.05.08,0c-.03,0-.05,0-.08,0Z" fill="#f5825f"/><path d="m25.5,50.5s0,.06.01.09c0-.02-.02-.04-.03-.06,0,0,0-.02.01-.03Z" fill="#f5825f"/><path d="m25.51,49.67s0,.07,0,.1c-.03-.04-.03-.07,0-.1Z" fill="#f5825f"/><path d="m25.48,49.33s.02.06.02.09c0-.03-.02-.06-.02-.09Z" fill="#f5825f"/><path d="m29.59,49.34s-.05-.05,0-.08c0,.03,0,.05,0,.08Z" fill="#f5825f"/><polygon points="47.01 49.18 47 49.18 47 49.17 47.01 49.18" fill="#a1a1a3"/><polygon points="46.66 49.17 46.65 49.17 46.66 49.15 46.66 49.17" fill="#a1a1a3"/><polygon points="46.39 49.19 46.38 49.19 46.38 49.17 46.39 49.19" fill="#a1a1a3"/><path d="m13.96,48.77s.05-.02.07,0c-.02,0-.05,0-.07,0Z" fill="#f5825f"/><path d="m13.74,48.73s.06,0,.09,0c-.03,0-.06,0-.09,0Z" fill="#f5825f"/><path d="m13.47,48.76s.06-.02.09-.02c-.03,0-.06.02-.09.02Z" fill="#f5825f"/><path d="m15.87,48.58s-.02-.06-.02-.09c0,.03.02.06.02.09Z" fill="#f5825f"/><path d="m29.58,48.1s-.03-.05,0-.08c0,.03,0,.05,0,.08Z" fill="#f5825f"/><path d="m15.85,48.04s0-.06,0-.09c0,.03,0,.06,0,.09Z" fill="#f5825f"/><polygon points="25.49 46.81 25.49 46.82 25.48 46.83 25.47 46.81 25.49 46.81" fill="#a1a1a3"/><polygon points="25.5 46.6 25.5 46.61 25.48 46.61 25.5 46.6" fill="#a1a1a3"/><polygon points="25.49 46.39 25.48 46.41 25.47 46.4 25.49 46.39" fill="#a1a1a3"/><polygon points="25.49 46.18 25.49 46.2 25.47 46.19 25.49 46.18" fill="#a1a1a3"/><polygon points="25.51 45.71 25.5 45.71 25.49 45.71 25.51 45.71" fill="#a1a1a3"/><path d="m28.16,36.67s.04.03.06.04c-.04.02-.06,0-.06-.04Z" fill="#f5825f"/><path d="m49.11,73.62s.06,0,.09.01c-.03,0-.06,0-.09-.01Z" fill="#f5825f"/></g><path d="m221.56,36.45s-.06,0-.09,0c.03,0,.06,0,.09,0Z" fill="#f5825f"/><path d="m220.51,36.45s-.06,0-.09,0c.03,0,.06,0,.09,0Z" fill="#f5825f"/><path d="m174.06,32.99s-.01.06-.02.09c0-.03.01-.06.02-.09Z" fill="#f5825f"/><path d="m225.07,75.2s.02-.05.02-.07c.04.04.03.06-.02.07Z" fill="#f5825f"/><path d="m231.99,75.2s.02-.05.02-.07c.04.04.03.06-.02.07Z" fill="#f5825f"/><path d="m250.05,75.2s.03-.04.05-.06c.02.05,0,.07-.05.06Z" fill="#f5825f"/><path d="m253.85,75.2s.03-.04.05-.06c.02.05,0,.07-.05.06Z" fill="#f5825f"/><path d="m180.44,55.58c.08-.02.16-.01.23.04-.08.03-.16.03-.23-.04Z" fill="#f5825f"/><path d="m188.24,55.62s.06-.01.09-.02c-.03,0-.06.01-.09.02Z" fill="#f5825f"/><path d="m187.77,55.6s.06.01.09.02c-.03,0-.06-.01-.09-.02Z" fill="#f5825f"/><path d="m186.23,55.62s.06-.02.09-.02c-.03,0-.06.02-.09.02Z" fill="#f5825f"/><path d="m188.53,41.96s.05,0,.08,0c-.02.04-.04.06-.08,0Z" fill="#f5825f"/><path d="m180.51,41.95s.05,0,.08,0c-.03.05-.05.03-.08,0Z" fill="#f5825f"/><path d="m225.14,69.82s-.04.06-.06.09c-.01-.05,0-.08.06-.09Z" fill="#f5825f"/><path d="m225.09,72.01s.04.06.06.09c-.05,0-.07-.04-.06-.09Z" fill="#f5825f"/><path d="m242.43,71.54s0,.05,0,.08c-.05-.03-.03-.05,0-.08Z" fill="#f5825f"/><path d="m242.41,71.75s-.01.06-.02.09c0-.03.01-.06.02-.09Z" fill="#f5825f"/><path d="m242.39,72.56s.02.06.02.09c0-.03-.02-.06-.02-.09Z" fill="#f5825f"/><path d="m242.42,72.79s0,.05,0,.08c-.04-.02-.06-.04,0-.08Z" fill="#f5825f"/></svg>